# xmcd
#
# Track frame offsets:
# 150
# 14780
# 45630
# 76319
# 104187
# 133001
# 169670
# 195205
# 232215
# 267814
# 325473
#
# Disc length: 4643 seconds
#
#
# Revision: 0
# Processed by: cddbd v1.5.1PL2 Copyright (c) Steve Scherf et al.
# Submitted via: FreeRIP 2.941 
#
DISCID=9b12210b
DTITLE=bamboleo - bamboleo en vivo
DYEAR=2005
DGENRE=latin
TTITLE0=camina pa' la pista
TTITLE1=te marchastes, que la stima
TTITLE2=cómo explicarle al corazon
TTITLE3=agua
TTITLE4=reggaeton con mas flow-bambóleate
TTITLE5=sueno de cristal (de lazarito valdes)
TTITLE6=estoy tocando fondo
TTITLE7=el virus
TTITLE8=esa nina es mia
TTITLE9=no puedo estar sin él
TTITLE10=empujalo que es de carton-outro
EXTD=Casa de la Musica, 2 sep 2005
EXTT0=
EXTT1=
EXTT2=
EXTT3=
EXTT4=
EXTT5=
EXTT6=
EXTT7=
EXTT8=
EXTT9=
EXTT10=
PLAYORDER=
